<svg xmlns="http://www.w3.org/2000/svg" width="32" height="32" viewBox="0 0 32 32" fill="none">
<path d="M21.2133 21.9814H9.9707C9.86543 21.9839 9.76073 21.9653 9.66275 21.9268C9.56476 21.8882 9.47548 21.8304 9.40015 21.7569C9.32482 21.6833 9.26497 21.5954 9.22412 21.4984C9.18326 21.4013 9.16223 21.2971 9.16226 21.1918V9.95993C9.16223 9.85463 9.18326 9.7504 9.22412 9.65335C9.26497 9.5563 9.32482 9.46841 9.40015 9.39484C9.47548 9.32127 9.56476 9.26351 9.66275 9.22496C9.76073 9.18641 9.86543 9.16784 9.9707 9.17036H21.6741C21.8853 9.16876 22.0874 9.08461 22.2373 8.93591L29.7639 1.3474C29.8744 1.23666 29.9496 1.09556 29.9798 0.942027C30.01 0.78849 29.9939 0.629438 29.9336 0.485063C29.8732 0.340687 29.7713 0.217498 29.6408 0.131137C29.5104 0.0447758 29.3571 -0.000863581 29.2007 1.23766e-05H0.792271C0.688356 -0.000342282 0.585394 0.0198182 0.489287 0.059339C0.393181 0.0988599 0.305821 0.156964 0.232217 0.230317C0.158612 0.303671 0.100212 0.390833 0.0603639 0.486804C0.0205158 0.582775 3.97816e-06 0.685669 4.58338e-06 0.789584V12.493C0.00227982 12.6943 0.0813213 12.8871 0.220977 13.032L7.51306 20.6313C7.62279 20.743 7.69695 20.8847 7.72617 21.0386C7.75539 21.1924 7.73836 21.3515 7.67723 21.4957C7.6161 21.6399 7.51361 21.7627 7.3827 21.8487C7.2518 21.9346 7.09836 21.9799 6.94176 21.9787H0.792271C0.688002 21.9787 0.584758 21.9992 0.48846 22.0392C0.392162 22.0792 0.304703 22.1378 0.231099 22.2117C0.157495 22.2855 0.0991933 22.3732 0.059537 22.4696C0.0198808 22.566 -0.000350073 22.6693 4.58338e-06 22.7736V30.3621C3.97816e-06 30.466 0.0205158 30.5689 0.0603639 30.6649C0.100212 30.7609 0.158612 30.848 0.232217 30.9214C0.305821 30.9947 0.393181 31.0529 0.489287 31.0924C0.585394 31.1319 0.688356 31.1521 0.792271 31.1517H8.37808C8.58634 31.1496 8.78538 31.0655 8.93213 30.9178C9.07889 30.77 9.16157 30.5704 9.16226 30.3621V24.1992C9.16107 24.0426 9.20631 23.8891 9.29227 23.7582C9.37823 23.6273 9.50106 23.5248 9.64524 23.4637C9.78942 23.4026 9.94848 23.3855 10.1023 23.4147C10.2562 23.444 10.3979 23.5181 10.5097 23.6279L18.1116 30.9361C18.2559 31.0767 18.4491 31.1559 18.6506 31.1571H30.6909C30.9005 31.1571 31.1016 31.074 31.2501 30.926C31.3986 30.778 31.4824 30.5772 31.4831 30.3675V13.606C31.4824 13.3963 31.3986 13.1955 31.2501 13.0475C31.1016 12.8995 30.9005 12.8164 30.6909 12.8164H22.7952C22.5858 12.8164 22.3849 12.8996 22.2369 13.0477C22.0888 13.1957 22.0056 13.3966 22.0056 13.606V21.1918C22.0049 21.4014 21.9211 21.6023 21.7726 21.7503C21.6241 21.8983 21.423 21.9814 21.2133 21.9814Z" fill="#006EF0"/>
</svg>