<svg xmlns="http://www.w3.org/2000/svg" width="125" height="37" viewBox="0 0 125 37" fill="none">
<path d="M46.442 27.189C46.442 27.9866 46.4163 28.6892 46.3647 29.2966C46.3219 29.8346 46.2494 30.3698 46.1475 30.8998C45.8979 32.1148 45.3365 33.2439 44.5185 34.1763C42.9932 35.9335 40.8948 36.8122 38.2233 36.8122C35.9703 36.8122 34.1155 36.2054 32.6589 34.9917C31.2023 33.7781 30.3433 32.1258 30.0819 30.0347C30.0786 30.0063 30.0812 29.9774 30.0897 29.95C30.0983 29.9227 30.1124 29.8974 30.1314 29.8759C30.1503 29.8544 30.1735 29.8371 30.1996 29.8251C30.2256 29.8131 30.2539 29.8068 30.2825 29.8065H33.813C33.8594 29.8073 33.904 29.824 33.9396 29.8539C33.9751 29.8837 33.9993 29.9248 34.0081 29.9703C34.11 30.6039 34.3541 31.2062 34.7223 31.7318C35.531 32.7835 36.7097 33.3093 38.2583 33.3093C41.1138 33.3093 42.5416 31.5582 42.5416 28.056V26.1674C42.5418 26.1285 42.5306 26.0904 42.5092 26.0579C42.4878 26.0254 42.4572 25.9999 42.4214 25.9848C42.3855 25.9696 42.346 25.9654 42.3078 25.9727C42.2696 25.98 42.2343 25.9984 42.2066 26.0257C40.734 27.3915 39.0596 28.0744 37.1833 28.0744C34.8825 28.0744 32.9988 27.2418 31.5324 25.5765C30.0525 23.888 29.3125 21.7786 29.3125 19.2482C29.3125 16.7854 30.0003 14.6931 31.3759 12.9714C33.0031 10.9338 35.6721 10.0723 38.2086 10.1497C39.2486 10.1809 40.6015 10.3724 41.1114 11.4179L41.8477 12.9015C41.8917 12.971 41.9571 13.0242 42.0341 13.0533C42.111 13.0823 42.1953 13.0856 42.2743 13.0625C42.3532 13.0394 42.4225 12.9913 42.4717 12.9254C42.521 12.8595 42.5474 12.7794 42.5471 12.6972V10.4313C42.5471 10.3786 42.5681 10.328 42.6053 10.2907C42.6426 10.2534 42.6932 10.2325 42.7459 10.2325H46.2432C46.2693 10.2325 46.2952 10.2376 46.3193 10.2476C46.3434 10.2576 46.3654 10.2723 46.3838 10.2907C46.4023 10.3092 46.4169 10.3311 46.4269 10.3552C46.4369 10.3793 46.442 10.4052 46.442 10.4313V27.189ZM42.7036 19.1783C42.7036 17.5388 42.2643 16.227 41.3856 15.2429C40.9635 14.754 40.4381 14.3649 39.8473 14.1039C39.2564 13.8429 38.615 13.7164 37.9693 13.7335C36.4894 13.7335 35.3236 14.2826 34.472 15.3809C33.6989 16.3626 33.3117 17.6345 33.3105 19.1967C33.3105 20.7343 33.6977 21.9939 34.472 22.9756C35.3175 24.0506 36.4832 24.5881 37.9693 24.5881C39.4554 24.5881 40.6346 24.0451 41.5071 22.9591C42.3048 21.9761 42.7036 20.7159 42.7036 19.1783Z" fill="#006EF0"/>
<path d="M53.3166 10.2471V27.3877C53.3166 27.4409 53.2954 27.492 53.2578 27.5296C53.2202 27.5672 53.1691 27.5884 53.1159 27.5884H49.6186C49.5654 27.5884 49.5144 27.5672 49.4767 27.5296C49.4391 27.492 49.418 27.4409 49.418 27.3877V11.6811C49.4186 11.6415 49.4307 11.603 49.453 11.5703C49.4752 11.5376 49.5066 11.5121 49.5431 11.497L53.0405 10.0631C53.0708 10.0508 53.1037 10.0461 53.1362 10.0494C53.1688 10.0527 53.2 10.0639 53.2272 10.082C53.2545 10.1002 53.2768 10.1247 53.2924 10.1535C53.308 10.1823 53.3163 10.2144 53.3166 10.2471V10.2471Z" fill="#006EF0"/>
<path d="M56.4967 11.6074L59.994 10.0096C60.0201 10.0099 60.0459 10.0153 60.0699 10.0255C60.0939 10.0357 60.1157 10.0505 60.134 10.0692C60.1523 10.0878 60.1667 10.1099 60.1765 10.1341C60.1863 10.1583 60.1912 10.1842 60.1909 10.2103V12.9511C60.191 13.0102 60.2112 13.0676 60.2483 13.1136C60.2854 13.1597 60.3371 13.1917 60.3949 13.2043C60.4526 13.217 60.513 13.2096 60.5659 13.1833C60.6189 13.157 60.6613 13.1134 60.6861 13.0597C60.948 12.5224 61.2405 12.0007 61.5623 11.4969C61.7564 11.1744 62.0188 10.8983 62.3311 10.6881C62.6434 10.4779 62.9979 10.3387 63.3698 10.2802C63.6138 10.2472 63.8599 10.2313 64.1061 10.2324C65.0878 10.2324 66.1076 10.5349 67.1653 11.1398C67.2098 11.1661 67.2428 11.2081 67.2578 11.2575C67.2728 11.3069 67.2687 11.3602 67.2463 11.4067L65.6578 14.6059C65.6448 14.631 65.6265 14.6531 65.6043 14.6707C65.5821 14.6884 65.5564 14.7011 65.5289 14.708C65.5015 14.715 65.4728 14.716 65.4449 14.7111C65.417 14.7062 65.3904 14.6954 65.367 14.6795C64.7889 14.2656 64.1007 14.033 63.3901 14.0113C61.2573 14.0113 60.1909 15.6183 60.1909 18.8321V27.5883H56.2979V11.808C56.2976 11.7817 56.3026 11.7557 56.3125 11.7314C56.3223 11.707 56.3369 11.6849 56.3554 11.6662C56.3739 11.6476 56.3959 11.6328 56.4202 11.6227C56.4444 11.6126 56.4704 11.6074 56.4967 11.6074V11.6074Z" fill="#006EF0"/>
<path d="M81.9313 10.0263H85.4507C85.477 10.026 85.503 10.031 85.5274 10.0409C85.5517 10.0507 85.5738 10.0654 85.5925 10.0838C85.6111 10.1023 85.626 10.1243 85.6361 10.1486C85.6462 10.1728 85.6514 10.1988 85.6514 10.2251V27.3877C85.6514 27.4409 85.6302 27.492 85.5926 27.5296C85.555 27.5672 85.5039 27.5884 85.4507 27.5884H81.9313C81.9046 27.5891 81.878 27.5845 81.8531 27.5747C81.8282 27.5649 81.8056 27.5502 81.7865 27.5315C81.7674 27.5128 81.7523 27.4904 81.7421 27.4657C81.7319 27.441 81.7267 27.4145 81.727 27.3877V25.3335C80.1207 26.838 78.3923 27.5896 76.5417 27.5884C74.2102 27.5884 72.2799 26.7441 70.7509 25.0556C69.236 23.3345 68.4795 21.4736 68.4795 18.8966C68.4795 16.3638 69.2366 14.2537 70.7509 12.5664C71.4363 11.8101 72.2642 11.1965 73.1871 10.7606C74.1101 10.3247 75.1099 10.0752 76.1294 10.0263C77.1602 9.98025 78.3033 10.0981 79.2016 10.6484C80.0096 11.1436 80.5158 12.2296 81.0128 13.0045L81.0846 13.1186C81.1247 13.1824 81.1845 13.2315 81.2549 13.2584C81.3253 13.2853 81.4025 13.2887 81.4749 13.2679C81.5474 13.2471 81.6111 13.2034 81.6566 13.1433C81.702 13.0832 81.7268 13.0099 81.727 12.9346V10.2251C81.727 10.1985 81.7323 10.1722 81.7426 10.1477C81.753 10.1232 81.7681 10.101 81.7872 10.0825C81.8062 10.064 81.8288 10.0494 81.8535 10.0398C81.8783 10.0301 81.9047 10.0255 81.9313 10.0263ZM71.8793 18.7291C71.8793 20.3464 72.3124 21.6644 73.1788 22.6829C73.5876 23.1765 74.1024 23.5715 74.685 23.8386C75.2675 24.1057 75.9028 24.2379 76.5436 24.2254C77.9892 24.2254 79.1549 23.7284 80.0409 22.7344C80.9306 21.7061 81.3754 20.3998 81.3754 18.8156C81.3754 17.2314 80.9306 15.9251 80.0409 14.8968C79.15 13.8917 77.9941 13.3892 76.573 13.3892C75.9357 13.3782 75.3038 13.5087 74.7229 13.7713C74.142 14.0339 73.6266 14.422 73.2138 14.9078C72.3253 15.941 71.8805 17.2148 71.8793 18.7291Z" fill="#006EF0"/>
<path d="M98.1885 13.334L95.3134 14.8655C95.2659 14.8895 95.211 14.8938 95.1603 14.8776C95.1097 14.8615 95.0675 14.826 95.0428 14.779C94.5519 13.8586 93.9531 13.3984 93.2462 13.3984C92.9048 13.3917 92.5743 13.5193 92.3259 13.7537C92.1995 13.8704 92.0998 14.0131 92.0337 14.172C91.9676 14.3308 91.9367 14.5021 91.943 14.674C91.943 15.322 92.6947 15.9632 94.1979 16.5976C96.2668 17.4885 97.6596 18.3094 98.3763 19.0604C99.0929 19.8114 99.4519 20.8201 99.4531 22.0865C99.468 22.8586 99.3146 23.6246 99.0033 24.3312C98.6921 25.0379 98.2307 25.6682 97.651 26.1784C96.4893 27.2175 94.9757 27.7755 93.4174 27.7393C90.649 27.7393 88.6703 26.4195 87.4812 23.78C87.4598 23.7313 87.4582 23.6762 87.4767 23.6264C87.4953 23.5765 87.5325 23.5359 87.5806 23.5131L90.5625 22.127C90.6087 22.1075 90.6604 22.1053 90.7081 22.1208C90.7558 22.1364 90.7963 22.1687 90.8221 22.2117C91.238 22.9271 91.5596 23.3879 91.7866 23.5941C92.2447 24.0278 92.8548 24.2645 93.4855 24.253C94.8035 24.253 95.4625 23.6517 95.4625 22.4492C95.4625 21.7546 94.9538 21.1073 93.9365 20.5072C93.5426 20.3121 93.1505 20.1207 92.7566 19.9348C92.3627 19.7489 91.9651 19.5666 91.5602 19.3641C90.4288 18.8083 89.6311 18.256 89.1673 17.7075C88.5782 17.0019 88.2837 16.0945 88.2837 14.9851C88.2645 14.3063 88.3889 13.6311 88.6486 13.0037C88.9084 12.3762 89.2978 11.8108 89.7913 11.3442C90.8028 10.3918 92.148 9.87484 93.5371 9.9048C95.6416 9.9048 97.2197 10.9614 98.2714 13.0745C98.2919 13.1204 98.2948 13.1722 98.2795 13.2201C98.2642 13.268 98.2318 13.3085 98.1885 13.334V13.334Z" fill="#006EF0"/>
<path d="M101.268 19.0218C101.249 17.8595 101.472 16.7061 101.923 15.6347C102.374 14.5634 103.043 13.5975 103.887 12.7984C105.632 11.0877 107.759 10.2324 110.267 10.2324C112.775 10.2324 114.914 11.0914 116.684 12.8094C118.413 14.536 119.277 16.6534 119.277 19.1616C119.277 21.6932 118.405 23.8143 116.66 25.5249C114.915 27.2356 112.759 28.0854 110.193 28.0743C107.66 28.0743 105.539 27.2073 103.83 25.4734C102.122 23.7616 101.268 21.611 101.268 19.0218ZM105.256 19.0917C105.256 20.7802 105.707 22.1154 106.609 23.0971C107.533 24.091 108.753 24.588 110.267 24.588C111.781 24.588 113.001 24.0972 113.926 23.1155C114.839 22.1338 115.296 20.822 115.296 19.1801C115.296 17.5382 114.839 16.2263 113.926 15.2446C113.001 14.2507 111.781 13.7537 110.267 13.7537C108.776 13.7537 107.568 14.2507 106.644 15.2446C105.72 16.2386 105.258 17.521 105.256 19.0917V19.0917Z" fill="#006EF0"/>
<path d="M125 0.198808V27.3878C125 27.4407 124.979 27.4914 124.942 27.529C124.905 27.5666 124.854 27.5879 124.801 27.5884H121.302C121.276 27.5884 121.25 27.5832 121.226 27.5731C121.202 27.563 121.18 27.5482 121.161 27.5295C121.143 27.5109 121.128 27.4887 121.118 27.4644C121.108 27.4401 121.103 27.414 121.104 27.3878V1.63271C121.104 1.59331 121.116 1.55484 121.137 1.52211C121.159 1.48938 121.19 1.46382 121.227 1.44864L124.724 0.0147381C124.755 0.00242887 124.787 -0.00227868 124.82 0.0010258C124.852 0.00433027 124.884 0.0155465 124.911 0.0336968C124.938 0.0518472 124.961 0.0763808 124.976 0.105159C124.992 0.133938 125 0.166088 125 0.198808V0.198808Z" fill="#006EF0"/>
<path d="M14.49 22.7805H6.81059C6.73868 22.7822 6.66716 22.7695 6.60024 22.7432C6.53331 22.7168 6.47232 22.6774 6.42087 22.6271C6.36942 22.5769 6.32853 22.5168 6.30063 22.4505C6.27272 22.3843 6.25836 22.3131 6.25838 22.2411V14.5691C6.25836 14.4972 6.27272 14.426 6.30063 14.3597C6.32853 14.2934 6.36942 14.2334 6.42087 14.1831C6.47232 14.1329 6.53331 14.0934 6.60024 14.0671C6.66716 14.0407 6.73868 14.0281 6.81059 14.0298H14.8047C14.949 14.0287 15.087 13.9712 15.1894 13.8696L20.3305 8.68623C20.406 8.61058 20.4574 8.5142 20.478 8.40933C20.4986 8.30446 20.4877 8.19581 20.4464 8.0972C20.4052 7.99858 20.3356 7.91443 20.2465 7.85544C20.1573 7.79645 20.0527 7.76528 19.9458 7.76588H0.541168C0.470189 7.76564 0.399859 7.77941 0.334213 7.8064C0.268566 7.8334 0.208894 7.87308 0.158618 7.92319C0.108342 7.97329 0.0684508 8.03283 0.0412321 8.09839C0.0140135 8.16394 2.71732e-06 8.23422 3.13072e-06 8.3052V16.2994C0.00155726 16.4368 0.0555473 16.5685 0.15094 16.6675L5.13187 21.8583C5.20682 21.9346 5.25748 22.0314 5.27744 22.1365C5.2974 22.2416 5.28576 22.3502 5.24401 22.4487C5.20225 22.5472 5.13224 22.6311 5.04283 22.6898C4.95342 22.7485 4.84861 22.7794 4.74164 22.7786H0.541168C0.469946 22.7786 0.399425 22.7927 0.333647 22.82C0.26787 22.8473 0.20813 22.8873 0.157855 22.9378C0.107579 22.9882 0.067755 23.0481 0.0406674 23.114C0.0135798 23.1798 -0.000239121 23.2504 3.13072e-06 23.3216V28.505C2.71732e-06 28.576 0.0140135 28.6463 0.0412321 28.7118C0.0684508 28.7774 0.108342 28.8369 0.158618 28.887C0.208894 28.9371 0.268566 28.9768 0.334213 29.0038C0.399859 29.0308 0.470189 29.0446 0.541168 29.0444H5.72273C5.86498 29.0429 6.00094 28.9855 6.10118 28.8846C6.20143 28.7836 6.2579 28.6473 6.25838 28.505V24.2953C6.25756 24.1884 6.28846 24.0836 6.34718 23.9942C6.4059 23.9047 6.48979 23.8347 6.58828 23.793C6.68676 23.7512 6.79541 23.7396 6.9005 23.7596C7.00559 23.7795 7.10241 23.8302 7.17873 23.9051L12.3713 28.8971C12.4699 28.9931 12.6019 29.0472 12.7395 29.048H20.9637C21.1069 29.048 21.2443 28.9913 21.3457 28.8902C21.4472 28.7891 21.5044 28.6519 21.5049 28.5087V17.0596C21.5044 16.9164 21.4472 16.7792 21.3457 16.6781C21.2443 16.577 21.1069 16.5202 20.9637 16.5202H15.5705C15.4274 16.5202 15.2903 16.5771 15.1891 16.6782C15.088 16.7793 15.0311 16.9165 15.0311 17.0596V22.2411C15.0307 22.3843 14.9734 22.5215 14.872 22.6226C14.7706 22.7237 14.6332 22.7805 14.49 22.7805V22.7805Z" fill="#006EF0"/>
</svg>